<mxfile host="Electron" agent="Mozilla/5.0 (Windows NT 10.0; Win64; x64) AppleWebKit/537.36 (KHTML, like Gecko) draw.io/28.0.6 Chrome/138.0.7204.100 Electron/37.2.3 Safari/537.36" version="28.0.6">
  <diagram name="Page-1" id="2YBvvXClWsGukQMizWep">
    <mxGraphModel dx="1188" dy="1129" grid="0" gridSize="10" guides="0" tooltips="1" connect="1" arrows="1" fold="1" page="0" pageScale="1" pageWidth="850" pageHeight="1100" math="0" shadow="0">
      <root>
        <mxCell id="0" />
        <mxCell id="1" parent="0" />
        <mxCell id="B5C_QkVyacYOGDxoGj1i-5" value="ライントレース走行状態" style="swimlane;fontStyle=0;align=center;verticalAlign=top;childLayout=stackLayout;horizontal=1;startSize=27;horizontalStack=0;resizeParent=1;resizeParentMax=0;resizeLast=0;collapsible=0;marginBottom=0;html=1;rounded=1;absoluteArcSize=1;arcSize=50;whiteSpace=wrap;fontSize=16;" parent="1" vertex="1">
          <mxGeometry x="549" y="332" width="554" height="384" as="geometry" />
        </mxCell>
        <mxCell id="B5C_QkVyacYOGDxoGj1i-33" value="ライン変化検知&lt;div&gt;[未処理のマップ情報あり かつ ライン色が分岐合図と一致]&lt;div&gt;/ 進路を設定する&lt;/div&gt;&lt;/div&gt;" style="edgeStyle=orthogonalEdgeStyle;rounded=0;orthogonalLoop=1;jettySize=auto;html=1;entryX=0;entryY=0.75;entryDx=0;entryDy=0;fontSize=16;" parent="B5C_QkVyacYOGDxoGj1i-5" edge="1">
          <mxGeometry x="-0.4197" y="-44" relative="1" as="geometry">
            <mxPoint x="287" y="384" as="sourcePoint" />
            <mxPoint y="294.75" as="targetPoint" />
            <Array as="points">
              <mxPoint x="286" y="384" />
              <mxPoint x="286" y="471" />
              <mxPoint x="-73" y="471" />
              <mxPoint x="-73" y="295" />
            </Array>
            <mxPoint as="offset" />
          </mxGeometry>
        </mxCell>
        <mxCell id="EmKS-xv0DQ20M_ceBoq2-14" value="ラインを逸脱した" style="edgeStyle=orthogonalEdgeStyle;rounded=0;orthogonalLoop=1;jettySize=auto;html=1;fontSize=16;" parent="1" source="aDabxxk5CUrzjw2BoiHM-1" target="aDabxxk5CUrzjw2BoiHM-13" edge="1">
          <mxGeometry x="-0.1016" y="-24" relative="1" as="geometry">
            <Array as="points">
              <mxPoint x="817" y="-122" />
            </Array>
            <mxPoint as="offset" />
          </mxGeometry>
        </mxCell>
        <mxCell id="aDabxxk5CUrzjw2BoiHM-1" value="ライントレース走行中" style="swimlane;fontStyle=0;align=center;verticalAlign=top;childLayout=stackLayout;horizontal=1;startSize=27;horizontalStack=0;resizeParent=1;resizeParentMax=0;resizeLast=0;collapsible=0;marginBottom=0;html=1;rounded=1;absoluteArcSize=1;arcSize=50;whiteSpace=wrap;fontSize=16;" parent="1" vertex="1">
          <mxGeometry x="662" y="-72" width="240" height="52" as="geometry" />
        </mxCell>
        <mxCell id="aDabxxk5CUrzjw2BoiHM-8" value="do / ラインに沿って走行する" style="fillColor=none;strokeColor=none;align=left;verticalAlign=middle;spacingLeft=5;whiteSpace=wrap;html=1;fontSize=16;" parent="aDabxxk5CUrzjw2BoiHM-1" vertex="1">
          <mxGeometry y="27" width="240" height="25" as="geometry" />
        </mxCell>
        <mxCell id="EmKS-xv0DQ20M_ceBoq2-17" value="ライン色の変化を検知した[分岐合図と一致]" style="edgeStyle=orthogonalEdgeStyle;rounded=0;orthogonalLoop=1;jettySize=auto;html=1;fontSize=16;" parent="aDabxxk5CUrzjw2BoiHM-1" source="aDabxxk5CUrzjw2BoiHM-8" target="aDabxxk5CUrzjw2BoiHM-8" edge="1">
          <mxGeometry x="-0.7227" y="112" relative="1" as="geometry">
            <Array as="points">
              <mxPoint x="173" y="93" />
              <mxPoint x="118" y="93" />
            </Array>
            <mxPoint as="offset" />
          </mxGeometry>
        </mxCell>
        <mxCell id="aDabxxk5CUrzjw2BoiHM-19" value="/ マップ情報を記憶する" style="edgeStyle=orthogonalEdgeStyle;rounded=0;orthogonalLoop=1;jettySize=auto;html=1;entryX=0;entryY=0.5;entryDx=0;entryDy=0;fontSize=16;" parent="1" target="aDabxxk5CUrzjw2BoiHM-1" edge="1">
          <mxGeometry x="-0.6031" relative="1" as="geometry">
            <Array as="points">
              <mxPoint x="573" y="-84" />
              <mxPoint x="573" y="-22" />
            </Array>
            <mxPoint as="offset" />
            <mxPoint x="573.5" y="-95" as="sourcePoint" />
          </mxGeometry>
        </mxCell>
        <mxCell id="EmKS-xv0DQ20M_ceBoq2-15" value="ラインを検知した" style="edgeStyle=orthogonalEdgeStyle;rounded=0;orthogonalLoop=1;jettySize=auto;html=1;entryX=1;entryY=0;entryDx=0;entryDy=0;fontSize=16;" parent="1" source="aDabxxk5CUrzjw2BoiHM-13" target="aDabxxk5CUrzjw2BoiHM-8" edge="1">
          <mxGeometry x="-0.6429" relative="1" as="geometry">
            <Array as="points">
              <mxPoint x="1053" y="-45" />
            </Array>
            <mxPoint as="offset" />
            <mxPoint x="955" y="-45" as="targetPoint" />
          </mxGeometry>
        </mxCell>
        <mxCell id="aDabxxk5CUrzjw2BoiHM-13" value="巻き戻し走行中" style="swimlane;fontStyle=0;align=center;verticalAlign=top;childLayout=stackLayout;horizontal=1;startSize=27;horizontalStack=0;resizeParent=1;resizeParentMax=0;resizeLast=0;collapsible=0;marginBottom=0;html=1;rounded=1;absoluteArcSize=1;arcSize=50;whiteSpace=wrap;fontSize=16;" parent="1" vertex="1">
          <mxGeometry x="954" y="-148" width="209" height="52" as="geometry" />
        </mxCell>
        <mxCell id="aDabxxk5CUrzjw2BoiHM-14" value="do /&amp;nbsp; 直前の動作を巻き戻す" style="fillColor=none;strokeColor=none;align=left;verticalAlign=middle;spacingLeft=5;whiteSpace=wrap;html=1;fontSize=16;" parent="aDabxxk5CUrzjw2BoiHM-13" vertex="1">
          <mxGeometry y="27" width="209" height="25" as="geometry" />
        </mxCell>
        <mxCell id="aDabxxk5CUrzjw2BoiHM-15" value="" style="ellipse;fillColor=strokeColor;html=1;fontSize=16;" parent="1" vertex="1">
          <mxGeometry x="558" y="-124" width="30" height="30" as="geometry" />
        </mxCell>
        <mxCell id="EmKS-xv0DQ20M_ceBoq2-16" value="smd ダブルループにおける状態遷移" style="shape=umlFrame;whiteSpace=wrap;html=1;pointerEvents=0;width=283;height=35;fontSize=16;" parent="1" vertex="1">
          <mxGeometry x="366" y="-298" width="842" height="360" as="geometry" />
        </mxCell>
        <mxCell id="EmKS-xv0DQ20M_ceBoq2-25" value="ライン色の変化を検知した[分岐合図と不一致] / 進路を決定する" style="edgeStyle=orthogonalEdgeStyle;rounded=0;orthogonalLoop=1;jettySize=auto;html=1;entryX=0.25;entryY=0;entryDx=0;entryDy=0;fontSize=16;" parent="1" source="aDabxxk5CUrzjw2BoiHM-1" target="aDabxxk5CUrzjw2BoiHM-1" edge="1">
          <mxGeometry x="-0.3367" y="-177" relative="1" as="geometry">
            <mxPoint as="offset" />
            <mxPoint x="781.8319999999999" y="-206.70000000000005" as="targetPoint" />
            <Array as="points">
              <mxPoint x="782" y="-198" />
              <mxPoint x="722" y="-198" />
            </Array>
          </mxGeometry>
        </mxCell>
        <mxCell id="EmKS-xv0DQ20M_ceBoq2-26" value="マップ情報の終端に到達した" style="edgeStyle=orthogonalEdgeStyle;rounded=0;orthogonalLoop=1;jettySize=auto;html=1;entryX=0.5;entryY=0;entryDx=0;entryDy=0;fontSize=16;" parent="1" source="aDabxxk5CUrzjw2BoiHM-8" target="EmKS-xv0DQ20M_ceBoq2-27" edge="1">
          <mxGeometry x="-0.05" y="-54" relative="1" as="geometry">
            <Array as="points">
              <mxPoint x="687" y="7" />
            </Array>
            <mxPoint as="offset" />
          </mxGeometry>
        </mxCell>
        <mxCell id="EmKS-xv0DQ20M_ceBoq2-27" value="" style="shape=sumEllipse;perimeter=ellipsePerimeter;html=1;backgroundOutline=1;fontSize=16;" parent="1" vertex="1">
          <mxGeometry x="671" y="22" width="31" height="31" as="geometry" />
        </mxCell>
        <mxCell id="B5C_QkVyacYOGDxoGj1i-1" value="smd ダブルループにおけるライントレース走行の状態遷移" style="shape=umlFrame;whiteSpace=wrap;html=1;pointerEvents=0;width=444;height=35;fontSize=16;" parent="1" vertex="1">
          <mxGeometry x="462" y="186" width="796" height="636" as="geometry" />
        </mxCell>
        <mxCell id="B5C_QkVyacYOGDxoGj1i-2" style="edgeStyle=orthogonalEdgeStyle;rounded=0;orthogonalLoop=1;jettySize=auto;html=1;exitX=0;exitY=0;exitDx=0;exitDy=0;entryX=0.5;entryY=0;entryDx=0;entryDy=0;" parent="1" source="aDabxxk5CUrzjw2BoiHM-15" target="aDabxxk5CUrzjw2BoiHM-15" edge="1">
          <mxGeometry relative="1" as="geometry" />
        </mxCell>
        <mxCell id="B5C_QkVyacYOGDxoGj1i-48" style="edgeStyle=orthogonalEdgeStyle;rounded=0;orthogonalLoop=1;jettySize=auto;html=1;exitX=1;exitY=0.5;exitDx=0;exitDy=0;" parent="1" source="B5C_QkVyacYOGDxoGj1i-4" target="B5C_QkVyacYOGDxoGj1i-5" edge="1">
          <mxGeometry relative="1" as="geometry">
            <Array as="points">
              <mxPoint x="534" y="436" />
              <mxPoint x="534" y="436" />
            </Array>
            <mxPoint x="505" y="436" as="sourcePoint" />
          </mxGeometry>
        </mxCell>
        <mxCell id="B5C_QkVyacYOGDxoGj1i-4" value="" style="ellipse;fillColor=strokeColor;html=1;fontSize=16;" parent="1" vertex="1">
          <mxGeometry x="502" y="421" width="30" height="30" as="geometry" />
        </mxCell>
        <mxCell id="B5C_QkVyacYOGDxoGj1i-28" style="edgeStyle=orthogonalEdgeStyle;rounded=0;orthogonalLoop=1;jettySize=auto;html=1;entryX=0.5;entryY=0;entryDx=0;entryDy=0;" parent="1" source="B5C_QkVyacYOGDxoGj1i-14" target="B5C_QkVyacYOGDxoGj1i-25" edge="1">
          <mxGeometry relative="1" as="geometry" />
        </mxCell>
        <mxCell id="B5C_QkVyacYOGDxoGj1i-14" value="" style="ellipse;fillColor=strokeColor;html=1;fontSize=16;" parent="1" vertex="1">
          <mxGeometry x="776" y="363" width="30" height="30" as="geometry" />
        </mxCell>
        <mxCell id="B5C_QkVyacYOGDxoGj1i-34" value="ラインズレなし" style="edgeStyle=orthogonalEdgeStyle;rounded=0;orthogonalLoop=1;jettySize=auto;html=1;entryX=0;entryY=0.25;entryDx=0;entryDy=0;fontSize=16;" parent="1" source="B5C_QkVyacYOGDxoGj1i-23" target="B5C_QkVyacYOGDxoGj1i-26" edge="1">
          <mxGeometry x="-0.3423" y="3" relative="1" as="geometry">
            <Array as="points">
              <mxPoint x="617" y="670" />
              <mxPoint x="617" y="451" />
            </Array>
            <mxPoint as="offset" />
          </mxGeometry>
        </mxCell>
        <mxCell id="B5C_QkVyacYOGDxoGj1i-23" value="ラインズレ判定状態" style="swimlane;fontStyle=0;align=center;verticalAlign=top;childLayout=stackLayout;horizontal=1;startSize=27;horizontalStack=0;resizeParent=1;resizeParentMax=0;resizeLast=0;collapsible=0;marginBottom=0;html=1;rounded=1;absoluteArcSize=1;arcSize=50;whiteSpace=wrap;fontSize=16;" parent="1" vertex="1">
          <mxGeometry x="650" y="642" width="283" height="55" as="geometry" />
        </mxCell>
        <mxCell id="B5C_QkVyacYOGDxoGj1i-24" value="&lt;div&gt;&lt;span style=&quot;background-color: transparent; color: light-dark(rgb(0, 0, 0), rgb(255, 255, 255));&quot;&gt;do / ラインとのズレを計算する&lt;/span&gt;&lt;/div&gt;" style="fillColor=none;strokeColor=none;align=left;verticalAlign=middle;spacingLeft=5;whiteSpace=wrap;html=1;fontSize=16;" parent="B5C_QkVyacYOGDxoGj1i-23" vertex="1">
          <mxGeometry y="27" width="283" height="28" as="geometry" />
        </mxCell>
        <mxCell id="B5C_QkVyacYOGDxoGj1i-25" value="進路進行状態" style="swimlane;fontStyle=0;align=center;verticalAlign=top;childLayout=stackLayout;horizontal=1;startSize=27;horizontalStack=0;resizeParent=1;resizeParentMax=0;resizeLast=0;collapsible=0;marginBottom=0;html=1;rounded=1;absoluteArcSize=1;arcSize=50;whiteSpace=wrap;fontSize=16;" parent="1" vertex="1">
          <mxGeometry x="641" y="418" width="300" height="52" as="geometry" />
        </mxCell>
        <mxCell id="B5C_QkVyacYOGDxoGj1i-26" value="do / 与えられた進路に向かって進行する" style="fillColor=none;strokeColor=none;align=left;verticalAlign=middle;spacingLeft=5;whiteSpace=wrap;html=1;fontSize=16;" parent="B5C_QkVyacYOGDxoGj1i-25" vertex="1">
          <mxGeometry y="27" width="300" height="25" as="geometry" />
        </mxCell>
        <mxCell id="B5C_QkVyacYOGDxoGj1i-29" value="10ms経過" style="edgeStyle=orthogonalEdgeStyle;rounded=0;orthogonalLoop=1;jettySize=auto;html=1;fontSize=16;entryX=0.5;entryY=0;entryDx=0;entryDy=0;" parent="1" source="B5C_QkVyacYOGDxoGj1i-26" target="B5C_QkVyacYOGDxoGj1i-42" edge="1">
          <mxGeometry relative="1" as="geometry" />
        </mxCell>
        <mxCell id="B5C_QkVyacYOGDxoGj1i-36" value="ラインズレあり&lt;div&gt;/ ラインズレ補正値を設定する&lt;/div&gt;" style="edgeStyle=orthogonalEdgeStyle;rounded=0;orthogonalLoop=1;jettySize=auto;html=1;entryX=1;entryY=0.25;entryDx=0;entryDy=0;fontSize=16;exitX=1;exitY=0.25;exitDx=0;exitDy=0;" parent="1" source="B5C_QkVyacYOGDxoGj1i-24" edge="1">
          <mxGeometry x="-0.2031" y="-7" relative="1" as="geometry">
            <mxPoint x="933" y="560" as="sourcePoint" />
            <mxPoint x="941" y="456.25" as="targetPoint" />
            <Array as="points">
              <mxPoint x="933" y="681" />
              <mxPoint x="979" y="681" />
              <mxPoint x="979" y="456" />
            </Array>
            <mxPoint as="offset" />
          </mxGeometry>
        </mxCell>
        <mxCell id="B5C_QkVyacYOGDxoGj1i-42" value="ライン色判定状態" style="swimlane;fontStyle=0;align=center;verticalAlign=top;childLayout=stackLayout;horizontal=1;startSize=27;horizontalStack=0;resizeParent=1;resizeParentMax=0;resizeLast=0;collapsible=0;marginBottom=0;html=1;rounded=1;absoluteArcSize=1;arcSize=50;whiteSpace=wrap;fontSize=16;" parent="1" vertex="1">
          <mxGeometry x="650" y="520" width="283" height="59" as="geometry" />
        </mxCell>
        <mxCell id="B5C_QkVyacYOGDxoGj1i-43" value="&lt;div&gt;&lt;span style=&quot;background-color: transparent; color: light-dark(rgb(0, 0, 0), rgb(255, 255, 255));&quot;&gt;do / ラインの色を判定する&lt;/span&gt;&lt;/div&gt;" style="fillColor=none;strokeColor=none;align=left;verticalAlign=middle;spacingLeft=5;whiteSpace=wrap;html=1;fontSize=16;" parent="B5C_QkVyacYOGDxoGj1i-42" vertex="1">
          <mxGeometry y="27" width="283" height="32" as="geometry" />
        </mxCell>
        <mxCell id="B5C_QkVyacYOGDxoGj1i-44" value="ライン色変化なし" style="edgeStyle=orthogonalEdgeStyle;rounded=0;orthogonalLoop=1;jettySize=auto;html=1;entryX=0.5;entryY=0;entryDx=0;entryDy=0;fontSize=16;" parent="1" source="B5C_QkVyacYOGDxoGj1i-43" target="B5C_QkVyacYOGDxoGj1i-23" edge="1">
          <mxGeometry relative="1" as="geometry" />
        </mxCell>
        <mxCell id="B5C_QkVyacYOGDxoGj1i-49" value="" style="ellipse;html=1;shape=endState;fillColor=strokeColor;" parent="1" vertex="1">
          <mxGeometry x="1110" y="786" width="30" height="30" as="geometry" />
        </mxCell>
        <mxCell id="B5C_QkVyacYOGDxoGj1i-50" value="ライン色変化&lt;span style=&quot;background-color: light-dark(#ffffff, var(--ge-dark-color, #121212)); color: light-dark(rgb(0, 0, 0), rgb(255, 255, 255));&quot;&gt;検知[未処理のマップ情報なし]&lt;/span&gt;" style="edgeStyle=orthogonalEdgeStyle;rounded=0;orthogonalLoop=1;jettySize=auto;html=1;fontSize=16;entryX=0.5;entryY=0;entryDx=0;entryDy=0;exitX=1;exitY=0.75;exitDx=0;exitDy=0;" parent="1" target="B5C_QkVyacYOGDxoGj1i-49" edge="1" source="B5C_QkVyacYOGDxoGj1i-5">
          <mxGeometry x="0.4787" y="-34" relative="1" as="geometry">
            <mxPoint x="1157" y="799" as="targetPoint" />
            <Array as="points">
              <mxPoint x="1125" y="620" />
            </Array>
            <mxPoint as="offset" />
            <mxPoint x="1156" y="719" as="sourcePoint" />
          </mxGeometry>
        </mxCell>
        <mxCell id="B5C_QkVyacYOGDxoGj1i-31" value="&lt;font style=&quot;font-size: 16px;&quot;&gt;ライン色変化検知[未処理のマップ情報あり かつ ライン色が分岐合図と不一致]&lt;/font&gt;&lt;div&gt;&lt;font style=&quot;font-size: 16px;&quot;&gt;/ トレース対象のラインカラーを設定する&lt;/font&gt;&lt;/div&gt;" style="edgeStyle=orthogonalEdgeStyle;rounded=0;orthogonalLoop=1;jettySize=auto;html=1;entryX=1;entryY=0.25;entryDx=0;entryDy=0;exitX=0.75;exitY=0;exitDx=0;exitDy=0;" parent="1" source="B5C_QkVyacYOGDxoGj1i-5" edge="1" target="B5C_QkVyacYOGDxoGj1i-5">
          <mxGeometry x="-0.6147" y="46" relative="1" as="geometry">
            <mxPoint x="1087" y="772" as="sourcePoint" />
            <mxPoint x="1280.46" y="400.41200000000003" as="targetPoint" />
            <Array as="points">
              <mxPoint x="881" y="332" />
              <mxPoint x="881" y="241" />
              <mxPoint x="1137" y="241" />
              <mxPoint x="1137" y="428" />
            </Array>
            <mxPoint as="offset" />
          </mxGeometry>
        </mxCell>
      </root>
    </mxGraphModel>
  </diagram>
</mxfile>
